<?xml version="1.0"?>
<svg xmlns="http://www.w3.org/2000/svg" id="_x31__x2C_5" enable-background="new 0 0 24 24" height="512px" viewBox="0 0 24 24" width="512px"><g><path d="m10.75 18.5c-.104 0-.21-.021-.311-.067-.377-.171-.544-.616-.372-.993l2.5-5.5c.173-.377.619-.542.993-.372.377.171.544.616.372.993l-2.5 5.5c-.125.276-.398.439-.682.439z" data-original="#000000" class="active-path" data-old_color="#000000" fill="#FFFFFF"/><path d="m10 13.5c-.552 0-1-.449-1-1s.448-1 1-1 1 .449 1 1-.448 1-1 1z" data-original="#000000" class="active-path" data-old_color="#000000" fill="#FFFFFF"/><path d="m14 18.5c-.552 0-1-.449-1-1s.448-1 1-1 1 .449 1 1-.448 1-1 1z" data-original="#000000" class="active-path" data-old_color="#000000" fill="#FFFFFF"/><path d="m13.87 6c-.22 0-.438-.096-.586-.281-.259-.324-.206-.795.117-1.054l3.399-2.72c.115-.092.107-.202.081-.278s-.087-.167-.231-.167h-9.3c-.144 0-.205.09-.231.167s-.034.186.08.277l3.4 2.721c.323.259.376.73.117 1.054s-.73.376-1.055.117l-3.399-2.72c-.588-.469-.809-1.232-.56-1.944s.896-1.172 1.648-1.172h9.301c.752 0 1.398.46 1.647 1.171s.028 1.475-.561 1.945l-3.398 2.719c-.139.111-.304.165-.469.165z" data-original="#000000" class="active-path" data-old_color="#000000" fill="#FFFFFF"/><path d="m17.25 6h-10.5c-.414 0-.75-.336-.75-.75s.336-.75.75-.75h10.5c.414 0 .75.336.75.75s-.336.75-.75.75z" data-original="#000000" class="active-path" data-old_color="#000000" fill="#FFFFFF"/><path d="m15.5 24h-6.75c-3.972 0-5.75-3.39-5.75-6.75 0-4.668 3.094-10.578 6.62-12.647.357-.21.816-.09 1.026.268.21.357.09.817-.267 1.026-3.076 1.805-5.879 7.216-5.879 11.353 0 2.422 1.113 5.25 4.25 5.25h6.75c3.61 0 4-3.671 4-5.25 0-4.137-2.803-9.548-5.88-11.353-.356-.209-.477-.669-.267-1.026.209-.357.665-.478 1.026-.268 3.527 2.069 6.621 7.979 6.621 12.647 0 4.164-2.107 6.75-5.5 6.75z" data-original="#000000" class="active-path" data-old_color="#000000" fill="#FFFFFF"/></g> </svg>
